<svg width="50" height="50" viewBox="0 0 50 50" fill="none" xmlns="http://www.w3.org/2000/svg">
<g clip-path="url(#clip0_683:1487)">
<path d="M25.0977 41.2109C16.2142 41.2109 8.78906 33.7872 8.78906 24.9023C8.78906 16.0175 16.2142 8.78906 25.0977 8.78906C33.9812 8.78906 41.2109 16.0175 41.2109 24.9023C41.2109 33.7872 33.9812 41.2109 25.0977 41.2109Z" fill="#17ACE8"/>
<path d="M41.2109 24.9023C41.2109 16.0175 33.9812 8.78906 25.0977 8.78906V41.2109C33.9812 41.2109 41.2109 33.7872 41.2109 24.9023Z" fill="#1689FC"/>
<path d="M21.9727 32.4219H16.1133C15.3036 32.4219 14.6484 31.7667 14.6484 30.957C14.6484 27.2306 16.7999 25.8607 18.3735 25.0039C19.7496 24.2529 20.5078 23.8395 20.5078 21.9727C20.5078 21.1645 19.8498 20.5078 19.043 20.5078C18.2361 20.5078 17.5781 21.1645 17.5781 21.9727C17.5781 23.9036 14.6484 23.9115 14.6484 21.9727C14.6484 19.5494 16.6197 17.5781 19.043 17.5781C21.4662 17.5781 23.4375 19.5494 23.4375 21.9727C23.4375 25.5775 21.3203 26.7319 19.7754 27.5745C18.8026 28.1066 18.1274 28.6696 17.8041 29.4922H21.9727C23.9036 29.4922 23.9115 32.4219 21.9727 32.4219Z" fill="#CAE8F9"/>
<path d="M36.8164 23.4375H35.3516V19.0429C35.3516 17.112 32.4219 17.1041 32.4219 19.0429V23.4375H29.4922V19.0429C29.4922 17.112 26.5625 17.1041 26.5625 19.0429V24.9023C26.5625 25.712 27.2177 26.3672 28.0273 26.3672H32.4219V30.957C32.4219 32.888 35.3516 32.8959 35.3516 30.957V26.3672H36.8164C38.7474 26.3672 38.7553 23.4375 36.8164 23.4375Z" fill="#B7E0F6"/>
<path d="M47.0703 7.32422V13.1836C47.0703 14.0038 46.4259 14.6484 45.6055 14.6484H39.7461C38.9257 14.6484 38.2812 14.0038 38.2812 13.1836C38.2812 12.3632 38.9257 11.7188 39.7461 11.7188H42.6465C38.5452 6.24023 32.041 2.92969 25.0977 2.92969C12.9688 2.92969 2.92969 12.7734 2.92969 24.9023C2.92969 25.7226 2.28525 26.3672 1.46484 26.3672C0.644434 26.3672 0 25.7226 0 24.9023C0 11.1621 11.3576 0 25.0977 0C32.5099 0 39.4532 3.36904 44.1406 8.93555V7.32422C44.1406 6.50381 44.7851 5.85938 45.6055 5.85938C46.4259 5.85938 47.0703 6.50381 47.0703 7.32422Z" fill="#FEA832"/>
<path d="M25.0977 2.92969V0C32.5099 0 39.4532 3.36904 44.1406 8.93555V7.32422C44.1406 6.50381 44.7851 5.85938 45.6055 5.85938C46.4259 5.85938 47.0703 6.50381 47.0703 7.32422V13.1836C47.0703 14.0038 46.4259 14.6484 45.6055 14.6484H39.7461C38.9257 14.6484 38.2812 14.0038 38.2812 13.1836C38.2812 12.3632 38.9257 11.7188 39.7461 11.7188H42.6465C38.5452 6.24023 32.041 2.92969 25.0977 2.92969Z" fill="#FE9923"/>
<path d="M50 24.9024C50 38.6426 38.8377 50 25.0977 50C17.6854 50 10.5468 46.6308 5.85938 41.0645V42.6758C5.85938 44.6093 2.92969 44.6093 2.92969 42.6758V36.8164C2.92969 35.996 3.57412 35.3516 4.39453 35.3516H10.2539C12.1872 35.3516 12.1872 38.2813 10.2539 38.2813H7.35352C11.4548 43.7598 18.1543 47.0703 25.0977 47.0703C37.2266 47.0703 47.0703 37.0313 47.0703 24.9024C47.0703 22.9687 50 22.9687 50 24.9024Z" fill="#FEA832"/>
<path d="M50 24.9024C50 38.6426 38.8377 50 25.0977 50V47.0703C37.2266 47.0703 47.0703 37.0313 47.0703 24.9024C47.0703 22.9687 50 22.9687 50 24.9024Z" fill="#FE9923"/>
</g>
<defs>
<clipPath id="clip0_683:1487">
<rect width="50" height="50" fill="white"/>
</clipPath>
</defs>
</svg>
