<svg width="50" height="50" viewBox="0 0 50 50" fill="none" xmlns="http://www.w3.org/2000/svg">
<path d="M50 16.1133L48.4891 14.6484H42.2191L41.2109 16.1133V25.0977L42.2637 26.5625H48.3981L50 25.0977V16.1133Z" fill="#FEA832"/>
<path d="M41.2109 42.6758C41.2109 43.4854 41.8661 44.1406 42.6758 44.1406H45.6055C48.0287 44.1406 50 42.1693 50 39.7461V33.8867L48.4877 32.4219H42.3107L41.2109 33.8867V42.6758Z" fill="#FEA832"/>
<path d="M50 10.2539C50 7.83066 48.0287 5.85938 45.6055 5.85938H42.6758C41.8661 5.85938 41.2109 6.51455 41.2109 7.32422V16.1133H50V10.2539Z" fill="#FFCC33"/>
<path d="M50 25.0977H41.2109V33.8867H50V25.0977Z" fill="#FFCC33"/>
<path d="M44.1406 4.39453C44.1406 1.96279 42.1779 0 39.7461 0H8.78906C6.35723 0 4.39453 1.96279 4.39453 4.39453V45.6055C4.39453 48.037 6.35723 50 8.78906 50H39.7461C42.1779 50 44.1406 48.037 44.1406 45.6055V4.39453Z" fill="#FD003A"/>
<path d="M44.1406 25.0977V45.6055C44.1406 48.037 42.1779 50 39.7461 50H8.78906C6.35723 50 4.39453 48.037 4.39453 45.6055V25.0977H44.1406Z" fill="#E50027"/>
<path d="M11.7188 28.0273H2.92969C1.31162 28.0273 0 26.7157 0 25.0977C0 23.4796 1.31162 22.168 2.92969 22.168H11.7188C13.3368 22.168 14.6484 23.4796 14.6484 25.0977C14.6484 26.7157 13.3368 28.0273 11.7188 28.0273Z" fill="#B7E0F6"/>
<path d="M2.92969 28.0273H11.7188C13.3366 28.0273 14.6484 26.7155 14.6484 25.0977H0C0 26.7155 1.31182 28.0273 2.92969 28.0273Z" fill="#A4D9F5"/>
<path d="M11.7188 13.1836H2.92969C1.31162 13.1836 0 11.872 0 10.2539C0 8.63584 1.31162 7.32422 2.92969 7.32422H11.7188C13.3368 7.32422 14.6484 8.63584 14.6484 10.2539C14.6484 11.872 13.3368 13.1836 11.7188 13.1836Z" fill="#B7E0F6"/>
<path d="M11.7188 42.6758H2.92969C1.31162 42.6758 0 41.3642 0 39.7461C0 38.128 1.31162 36.8164 2.92969 36.8164H11.7188C13.3368 36.8164 14.6484 38.128 14.6484 39.7461C14.6484 41.3642 13.3368 42.6758 11.7188 42.6758Z" fill="#A4D9F5"/>
<path d="M33.8867 26.5625C33.0663 26.5625 32.4219 25.9179 32.4219 25.0977C32.4219 22.6659 30.4592 20.7031 28.0273 20.7031C25.5955 20.7031 23.6328 22.6659 23.6328 25.0977C23.6328 27.5292 25.5955 29.4922 28.0273 29.4922C29.1699 29.4922 30.1659 29.0526 30.957 28.3496C33.7987 30.9277 38.2812 28.877 38.2812 25.0977C38.2812 19.4434 33.6814 14.8438 28.0273 14.8438C22.3732 14.8438 17.7734 19.4434 17.7734 25.0977C17.7734 28.6133 19.5312 31.8359 22.5195 33.7402C25.6248 35.7324 29.3456 35.8495 32.7147 34.2969C34.4725 33.4765 33.2129 30.8105 31.4842 31.6308C28.965 32.8027 26.2696 32.6561 24.1013 31.2792C21.9627 29.9023 20.7031 27.6172 20.7031 25.0977C20.7031 21.0547 23.9844 17.7734 28.0273 17.7734C32.0703 17.7734 35.3516 21.0547 35.3516 25.0977C35.3516 25.9179 34.7071 26.5625 33.8867 26.5625ZM29.4629 25.2734C29.3749 26.0059 28.7598 26.5625 28.0273 26.5625C27.2069 26.5625 26.5625 25.9179 26.5625 25.0977C26.5625 24.2772 27.2069 23.6328 28.0273 23.6328C28.7891 23.6328 29.4042 24.2479 29.4629 25.0097V25.2734Z" fill="#CAE8F9"/>
<path d="M32.7147 34.2969C29.3455 35.8495 25.6248 35.7324 22.5195 33.7402C19.5312 31.8359 17.7734 28.6133 17.7734 25.0977H20.7031C20.7031 27.6172 21.9627 29.9023 24.1013 31.2793C26.2695 32.6562 28.965 32.8028 31.4842 31.6309C33.213 30.8105 34.4726 33.4766 32.7147 34.2969Z" fill="#B7E0F6"/>
<path d="M38.2812 25.0977C38.2812 28.8769 33.7987 30.9277 30.957 28.3496C30.1659 29.0527 29.1699 29.4922 28.0273 29.4922C25.5955 29.4922 23.6328 27.5292 23.6328 25.0977H26.5625C26.5625 25.9179 27.2069 26.5625 28.0273 26.5625C28.7598 26.5625 29.3749 26.0059 29.4629 25.2734V25.0977H32.4219C32.4219 25.9179 33.0663 26.5625 33.8867 26.5625C34.7071 26.5625 35.3516 25.9179 35.3516 25.0977H38.2812Z" fill="#B7E0F6"/>
</svg>
