<svg width="60" height="60" viewBox="0 0 60 60" fill="none" xmlns="http://www.w3.org/2000/svg">
<g clip-path="url(#clip0_730:1915)">
<path d="M36.5783 15.8802C34.7643 17.6945 32.3821 18.6018 30 18.6018C27.6178 18.6018 25.2355 17.6946 23.4215 15.8802C19.7937 12.2527 19.7937 6.34898 23.4215 2.72027C25.2353 0.907148 27.6176 0 29.9998 0C32.382 0 34.7643 0.907149 36.5782 2.72039C40.206 6.34898 40.206 12.2527 36.5783 15.8802Z" fill="#97DE3D"/>
<path d="M15.8834 36.5799C14.0707 38.3942 11.6885 39.3015 9.305 39.3015C6.92281 39.3015 4.54051 38.3943 2.72656 36.5799C-0.902615 32.9474 -0.91574 27.0656 2.72656 23.42C6.35692 19.7888 12.2605 19.7938 15.8833 23.42C19.5202 27.0577 19.5207 32.9418 15.8834 36.5799Z" fill="#FFE14D"/>
<path d="M57.273 36.58C55.5231 38.3303 53.1723 39.3015 50.6945 39.3015H50.6933C48.31 39.3015 45.9289 38.3944 44.1162 36.58C40.4794 32.9422 40.4789 27.0583 44.1162 23.42C45.929 21.6058 48.3112 20.6985 50.6933 20.6985C53.0755 20.6985 55.459 21.6056 57.273 23.42C60.9023 27.0526 60.9151 32.9345 57.273 36.58Z" fill="#FF4D4D"/>
<path d="M36.5784 57.2797C34.7887 59.0675 32.4236 60.0001 30 60.0001C27.6178 60.0001 25.2355 59.0929 23.4215 57.2797C19.7937 53.651 19.7937 47.7473 23.4215 44.1198C25.2355 42.3055 27.6176 41.3982 30 41.3982C32.3821 41.3982 34.7644 42.3053 36.5783 44.1198C40.2062 47.7474 40.2062 53.6511 36.5784 57.2797Z" fill="#7ED8F6"/>
<path d="M11.0749 18.9212C10.2798 18.3642 10.0867 17.2679 10.6437 16.4726C12.2378 14.1959 14.2001 12.2331 16.4758 10.6392C17.271 10.0823 18.3669 10.2754 18.9239 11.0708C19.4808 11.8661 19.2875 12.9624 18.4924 13.5193C16.5533 14.8775 14.8814 16.5499 13.523 18.4898C12.9661 19.285 11.8701 19.4783 11.0749 18.9212Z" fill="#DFE7F4"/>
<path d="M41.0759 48.9292C40.519 48.1339 40.7123 47.0376 41.5074 46.4807C43.4465 45.1225 45.1184 43.4501 46.4768 41.5102C47.0338 40.7148 48.1298 40.5217 48.9249 41.0787C49.72 41.6357 49.9131 42.732 49.3561 43.5273C47.762 45.804 45.7997 47.7667 43.524 49.3607C42.7297 49.9173 41.6335 49.7253 41.0759 48.9292Z" fill="#C7CFE1"/>
<path d="M16.4758 49.3609C14.2 47.7668 12.2377 45.8041 10.6436 43.5274C10.0866 42.7321 10.2799 41.6359 11.0749 41.0789C11.8702 40.522 12.9661 40.715 13.5229 41.5104C14.8814 43.4503 16.5533 45.1227 18.4924 46.4809C19.2876 47.0379 19.4807 48.1341 18.9239 48.9294C18.3673 49.7243 17.2715 49.9182 16.4758 49.3609Z" fill="#DFE7F4"/>
<path d="M46.4769 18.4898C45.1184 16.5499 43.4465 14.8775 41.5074 13.5193C40.7122 12.9623 40.5191 11.8661 41.0759 11.0708C41.6328 10.2753 42.7287 10.0823 43.524 10.6392C45.7998 12.2333 47.7621 14.196 49.3562 16.4727C49.9132 17.268 49.7199 18.3642 48.9249 18.9212C48.1295 19.4783 47.0336 19.2851 46.4769 18.4898Z" fill="#C7CFE1"/>
<path d="M36.5784 44.1198C40.2062 47.7473 40.2062 53.651 36.5784 57.2797C34.7887 59.0674 32.4237 60 30 60V41.3982C32.3822 41.3982 34.7645 42.3053 36.5784 44.1198Z" fill="#6AA9FF"/>
<path d="M36.5783 15.8802C34.7644 17.6945 32.3822 18.6018 30 18.6018V0C32.3822 0 34.7645 0.907149 36.5783 2.72039C40.2061 6.34898 40.2061 12.2527 36.5783 15.8802Z" fill="#59C36A"/>
<path d="M15.8834 36.5799C14.0706 38.3941 11.6884 39.3014 9.30493 39.3014V20.6985C11.6871 20.6985 14.0706 21.6056 15.8834 23.42C19.5202 27.0577 19.5206 32.9418 15.8834 36.5799Z" fill="#FABE2C"/>
<path d="M57.273 36.5799C55.5231 38.3302 53.1723 39.3014 50.6945 39.3014H50.6934V20.6985C53.0755 20.6985 55.459 21.6056 57.273 23.42C60.9023 27.0525 60.9152 32.9344 57.273 36.5799Z" fill="#CD0000"/>
</g>
<defs>
<clipPath id="clip0_730:1915">
<rect width="60" height="60" fill="white"/>
</clipPath>
</defs>
</svg>
