<svg width="40" height="40" viewBox="0 0 40 40" fill="none" xmlns="http://www.w3.org/2000/svg">
<g clip-path="url(#clip0_683:1311)">
<path d="M29.2598 7.03125H23.4004V1.17188C23.4004 0.515547 22.8848 0 22.2285 0H3.51563C1.57016 0 0 1.57023 0 3.51562V36.4844C0 38.4296 1.57016 40 3.51563 40H26.916C28.8615 40 30.4316 38.4296 30.4316 36.4844V8.20312C30.4316 7.5468 29.9161 7.03125 29.2598 7.03125Z" fill="#CAE8F9"/>
<path d="M30.4316 8.20312V36.4844C30.4316 38.4296 28.8615 40 26.916 40H15.1973V0H22.2285C22.8848 0 23.4004 0.515547 23.4004 1.17188V7.03125H29.2598C29.9161 7.03125 30.4316 7.5468 30.4316 8.20312Z" fill="#B7E0F6"/>
<path d="M30.4316 9.375H22.2285C21.5808 9.375 21.0566 8.85086 21.0566 8.20312V0H23.6109C24.531 0 25.4328 0.373047 26.0829 1.02422L29.4085 4.35102C30.0585 5.00336 30.4316 5.90281 30.4316 6.82063V9.375Z" fill="#CAE8F9"/>
<path d="M38.963 12.5625C37.6507 11.2266 35.3069 11.2266 33.9943 12.5625L32.7989 13.7814L31.9552 14.6016C31.4863 15.0469 31.4863 15.7969 31.9552 16.2422L33.6192 17.9064L35.2834 19.5703C35.7051 20.0391 36.5022 20.0391 36.9239 19.5703L37.7677 18.7501L38.963 17.5313C40.3457 16.2187 40.3457 13.875 38.963 12.5625Z" fill="#1689FC"/>
<path d="M25.6025 25.9219L23.1883 23.5078C23.1417 23.461 23.0947 23.461 23.0479 23.5078L22.9778 23.5547C22.837 23.6954 22.7432 23.8594 22.6962 24.0235L21.0323 29.0157C20.868 29.4844 21.0088 29.9297 21.3135 30.211V30.2343C21.6416 30.539 22.0869 30.6562 22.5088 30.4922L27.501 28.828C27.6652 28.7811 27.8291 28.6874 27.9697 28.5468L28.0166 28.4998C28.0636 28.453 28.0636 28.4062 28.0166 28.3592C27.2432 27.5626 26.3995 26.7187 25.6025 25.9219Z" fill="#FEDBAB"/>
<path d="M22.2283 14.0625H5.8592C4.31256 14.0625 4.31256 11.7188 5.8592 11.7188H22.2283C23.7751 11.7188 23.7751 14.0625 22.2283 14.0625Z" fill="#17ACE8"/>
<path d="M17.5408 18.75H5.8592C4.31256 18.75 4.31256 16.4062 5.8592 16.4062H17.5408C19.0876 16.4062 19.0876 18.75 17.5408 18.75Z" fill="#17ACE8"/>
<path d="M17.5408 23.4375H5.8592C4.31256 23.4375 4.31256 21.0938 5.8592 21.0938H17.5408C19.0876 21.0938 19.0876 23.4375 17.5408 23.4375Z" fill="#17ACE8"/>
<path d="M17.5408 28.125H5.8592C4.31256 28.125 4.31256 25.7812 5.8592 25.7812H17.5408C19.0876 25.7812 19.0876 28.125 17.5408 28.125Z" fill="#17ACE8"/>
<path d="M22.2283 35.3125H15.1971C13.6504 35.3125 13.6504 32.9688 15.1971 32.9688H22.2283C23.775 32.9688 23.775 35.3125 22.2283 35.3125Z" fill="#17ACE8"/>
<path d="M25.6034 25.9219C26.4006 26.7187 27.2442 27.5625 28.0176 28.3593C28.0645 28.4063 28.0645 28.4532 28.0176 28.4999L27.9706 28.5469C27.8302 28.6875 27.6663 28.7812 27.502 28.8282L22.5098 30.4923C22.0877 30.6562 21.6426 30.5391 21.3145 30.2344V30.211L25.6034 25.9219Z" fill="#FEC478"/>
<path d="M38.963 17.5311L37.7676 18.75L36.9238 19.5702C36.5021 20.0389 35.705 20.0389 35.2833 19.5702L33.6191 17.9062L38.963 12.5624C40.3457 13.8749 40.3457 16.2186 38.963 17.5311Z" fill="#136EF1"/>
<path d="M37.7677 18.75L36.924 19.5703C32.2834 24.1875 33.8301 22.6406 29.6581 26.8125C29.6581 26.8593 27.9941 28.5234 27.9707 28.5469C27.8302 28.6875 27.6663 28.7812 27.502 28.8282L22.6973 24.0235C22.7442 23.8594 22.838 23.6953 22.9788 23.5547C23.0023 23.5313 24.6662 21.8671 24.7132 21.8671C27.7599 18.8203 26.2598 20.3438 31.9553 14.6016L32.7755 13.7578L37.7677 18.75Z" fill="#FD003A"/>
<path d="M37.7677 18.75L36.924 19.5702C32.2834 24.1875 33.8301 22.6405 29.6581 26.8125C29.6581 26.8593 27.9941 28.5233 27.9707 28.5469C27.8302 28.6875 27.6663 28.7812 27.502 28.8281L25.1113 26.4374L35.2835 16.2656L37.7677 18.75Z" fill="#E50027"/>
<path d="M17.541 28.125H15.1973V25.7812H17.541C19.0877 25.7812 19.0877 28.125 17.541 28.125Z" fill="#1689FC"/>
<path d="M17.541 23.4375H15.1973V21.0938H17.541C19.0877 21.0938 19.0877 23.4375 17.541 23.4375Z" fill="#1689FC"/>
<path d="M17.541 18.75H15.1973V16.4062H17.541C19.0877 16.4062 19.0877 18.75 17.541 18.75Z" fill="#1689FC"/>
<path d="M22.2285 35.3125H15.1973V32.9688H22.2285C23.7752 32.9688 23.7752 35.3125 22.2285 35.3125Z" fill="#1689FC"/>
<path d="M22.2285 14.0625H15.1973V11.7188H22.2285C23.7752 11.7188 23.7752 14.0625 22.2285 14.0625Z" fill="#1689FC"/>
</g>
<defs>
<clipPath id="clip0_683:1311">
<rect width="40" height="40" fill="white"/>
</clipPath>
</defs>
</svg>
