<svg width="60" height="60" viewBox="0 0 60 60" fill="none" xmlns="http://www.w3.org/2000/svg">
<g clip-path="url(#clip0_696:3391)">
<path d="M5.27344 9.375C4.30435 9.375 3.51562 8.58627 3.51562 7.61719C3.51562 6.6481 4.30435 5.85938 5.27344 5.85938H8.78906C9.75998 5.85938 10.5469 5.07248 10.5469 4.10156C10.5469 3.13065 9.75998 2.34375 8.78906 2.34375H7.03125V1.75781C7.03125 0.786896 6.24435 0 5.27344 0C4.30252 0 3.51562 0.786896 3.51562 1.75781V2.64587C1.46942 3.37189 0 5.32562 0 7.61719C0 10.5249 2.36572 12.8906 5.27344 12.8906C6.24252 12.8906 7.03125 13.6794 7.03125 14.6484C7.03125 15.6175 6.24252 16.4062 5.27344 16.4062H1.75781C0.786896 16.4062 0 17.1931 0 18.1641C0 19.135 0.786896 19.9219 1.75781 19.9219H3.51562V20.5078C3.51562 21.4787 4.30252 22.2656 5.27344 22.2656C6.24435 22.2656 7.03125 21.4787 7.03125 20.5078V19.6198C9.07745 18.8937 10.5469 16.94 10.5469 14.6484C10.5469 11.7407 8.18115 9.375 5.27344 9.375Z" fill="#FFD500"/>
<path d="M25.2737 35.3906H18.2424C17.2715 35.3906 16.4846 36.1775 16.4846 37.1484V58.2422C16.4846 59.2131 17.2715 60 18.2424 60H25.2737C26.2441 60 27.0315 59.2131 27.0315 58.2422V37.1484C27.0315 36.1775 26.2441 35.3906 25.2737 35.3906Z" fill="#FE0050"/>
<path d="M41.8572 42H34.4287C33.4034 42 32.5715 42.8058 32.5715 43.8V58.2C32.5715 59.1942 33.4034 60 34.4287 60H41.8572C42.883 60 43.7144 59.1942 43.7144 58.2V43.8C43.7144 42.8058 42.883 42 41.8572 42Z" fill="#FE0050"/>
<path d="M58.2858 48.8572H51.4286C50.4818 48.8572 49.7144 49.6885 49.7144 50.7143V58.1429C49.7144 59.1687 50.4818 60 51.4286 60H58.2858C59.2327 60 60.0001 59.1687 60.0001 58.1429V50.7143C60.0001 49.6885 59.2327 48.8572 58.2858 48.8572Z" fill="#FE0050"/>
<path d="M8.78906 25.7812H1.75781C0.786896 25.7812 0 26.5681 0 27.5391V58.2422C0 59.2131 0.786896 60 1.75781 60H8.78906C9.75998 60 10.5469 59.2131 10.5469 58.2422V27.5391C10.5469 26.5681 9.75998 25.7812 8.78906 25.7812Z" fill="#FE0050"/>
<path d="M47.9237 36.3116C47.9562 36.3075 47.9887 36.3029 48.0208 36.2965C48.046 36.292 48.0707 36.2865 48.0954 36.2805C48.1229 36.2741 48.1508 36.2672 48.1778 36.2595C48.2034 36.2521 48.2291 36.2444 48.2542 36.2357C48.2803 36.227 48.306 36.2173 48.3316 36.2073C48.3563 36.1977 48.381 36.188 48.4053 36.1775C48.4309 36.1661 48.4566 36.1533 48.4817 36.1404C48.5046 36.129 48.5275 36.118 48.5495 36.1057C48.576 36.091 48.6017 36.0745 48.6278 36.0585C48.6475 36.0461 48.6681 36.0342 48.6873 36.021C48.7157 36.0013 48.7427 35.9798 48.7701 35.9587C48.7857 35.9468 48.8022 35.9358 48.8173 35.923C48.8182 35.9221 48.8196 35.9216 48.8205 35.9207L55.8517 30.0613C56.5974 29.4397 56.6986 28.3315 56.077 27.5853C55.4553 26.8396 54.3466 26.7389 53.6014 27.3605L49.2252 31.0071C48.4547 24.9966 45.7416 19.4426 41.3914 15.0925C36.1931 9.8941 29.2754 7.03125 21.9141 7.03125C20.9431 7.03125 20.1562 7.81815 20.1562 8.78906C20.1562 9.75998 20.9431 10.5469 21.9141 10.5469C28.3365 10.5469 34.3712 13.0444 38.9053 17.579C42.5798 21.2531 44.9158 25.9117 45.6706 30.9641L40.5139 27.2809C39.7243 26.7165 38.6261 26.8996 38.0617 27.6892C37.4977 28.4793 37.6804 29.577 38.4705 30.1414L46.6736 36.0008C46.6804 36.0054 46.6873 36.0095 46.6942 36.0146C46.7116 36.0265 46.7294 36.0374 46.7468 36.0489C46.7734 36.0658 46.7995 36.0823 46.8265 36.0974C46.8457 36.1084 46.8649 36.1189 46.8851 36.1295C46.913 36.1441 46.9414 36.1574 46.9698 36.1702C46.989 36.1789 47.0073 36.188 47.0265 36.1958C47.0723 36.2146 47.119 36.232 47.1657 36.2466C47.1799 36.2512 47.1945 36.2544 47.2087 36.2585C47.2453 36.2691 47.2819 36.2787 47.3186 36.2869C47.3378 36.291 47.357 36.2947 47.3762 36.2979C47.4115 36.3048 47.4472 36.3098 47.4825 36.3144C47.5003 36.3162 47.5172 36.3185 47.5351 36.3203C47.5882 36.3249 47.6418 36.3281 47.6949 36.3281H47.6953H47.6962C47.7512 36.3281 47.8056 36.3249 47.8601 36.3199C47.8816 36.3176 47.9027 36.3144 47.9237 36.3116Z" fill="#0A0A48"/>
<path d="M25.2739 35.3906H21.7583V60H25.2739C26.2444 60 27.0317 59.2131 27.0317 58.2422V37.1484C27.0317 36.1775 26.2444 35.3906 25.2739 35.3906Z" fill="#E10555"/>
<path d="M42.0001 42H38.5715V60H42.0001C42.947 60 43.7144 59.1942 43.7144 58.2V43.8C43.7144 42.8058 42.947 42 42.0001 42Z" fill="#E10555"/>
<path d="M58.2857 48.8572H54.8572V60H58.2857C59.2326 60 60 59.1687 60 58.1429V50.7143C60 49.6885 59.2326 48.8572 58.2857 48.8572Z" fill="#E10555"/>
<path d="M8.78906 25.7812H5.27344V60H8.78906C9.75998 60 10.5469 59.2131 10.5469 58.2422V27.5391C10.5469 26.5681 9.75998 25.7812 8.78906 25.7812Z" fill="#E10555"/>
<path d="M5.27344 9.375V12.8906C6.24252 12.8906 7.03125 13.6794 7.03125 14.6484C7.03125 15.6175 6.24252 16.4062 5.27344 16.4062V22.2656C6.24435 22.2656 7.03125 21.4787 7.03125 20.5078V19.6198C9.07745 18.8937 10.5469 16.94 10.5469 14.6484C10.5469 11.7407 8.18115 9.375 5.27344 9.375Z" fill="#FFC300"/>
</g>
<defs>
<clipPath id="clip0_696:3391">
<rect width="60" height="60" fill="white"/>
</clipPath>
</defs>
</svg>
