<svg width="60" height="60" viewBox="0 0 60 60" fill="none" xmlns="http://www.w3.org/2000/svg">
<path d="M28.8282 10.5469V14.0625H21.2111C16.3654 14.0625 12.422 18.0047 12.422 22.8516V28.7109H8.90637V22.8516C8.90637 16.0664 14.4259 10.5469 21.2111 10.5469H28.8282Z" fill="#E7E7E7"/>
<path d="M38.788 9.96094L38.7845 14.7656H28.2423V5.27344H28.8282C28.8282 7.78711 30.8181 9.96094 33.6329 9.96094H38.788Z" fill="#444444"/>
<path d="M38.788 9.96089L38.7845 14.7656H33.5157V9.95972C33.5544 9.96089 33.5931 9.96089 33.6329 9.96089H38.788Z" fill="#282828"/>
<path d="M17.6874 54.3255L15.3437 29.7162C15.2578 28.8139 14.5 28.125 13.5938 28.125H7.73445C6.82824 28.125 6.07051 28.8139 5.98449 29.7162L3.64074 54.3255C3.54266 55.3557 4.35301 56.25 5.3907 56.25H15.9376C16.9766 56.25 17.7854 55.3546 17.6874 54.3255Z" fill="#5A5A5A"/>
<path d="M51.0939 0C49.6847 0.000117188 52.8975 0 33.5157 0C30.608 0 28.2423 2.36566 28.2423 5.27344C28.2423 8.05078 30.4359 10.5469 33.6329 10.5469H49.3361C50.3068 10.5469 51.0939 9.75984 51.0939 8.78906C51.0939 7.81828 50.3068 7.03125 49.3361 7.03125H38.4868C38.8788 5.92594 38.9012 4.68387 38.4868 3.51562H51.0939C52.0631 3.51562 52.8517 4.30418 52.8517 5.27344C52.8517 6.24422 53.6387 7.03125 54.6095 7.03125C55.5803 7.03125 56.3673 6.24422 56.3673 5.27344C56.3673 2.36566 54.0016 0 51.0939 0Z" fill="#5A5A5A"/>
<path d="M56.3673 5.27344C56.3673 6.24375 55.5798 7.03125 54.6095 7.03125C53.6392 7.03125 52.8517 6.24375 52.8517 5.27344C52.8517 4.3043 52.063 3.51562 51.0939 3.51562H38.4868C38.9017 4.68398 38.8794 5.92617 38.4868 7.03125H49.3361C50.3064 7.03125 51.0939 7.81875 51.0939 8.78906C51.0939 9.75937 50.3064 10.5469 49.3361 10.5469H33.6329C33.5931 10.5469 33.5544 10.5469 33.5157 10.5445V0H51.0939C54.0013 0 56.3673 2.36602 56.3673 5.27344Z" fill="#444444"/>
<path d="M33.5157 7.03125C34.4866 7.03125 35.2736 6.24425 35.2736 5.27344C35.2736 4.30262 34.4866 3.51562 33.5157 3.51562C32.5449 3.51562 31.7579 4.30262 31.7579 5.27344C31.7579 6.24425 32.5449 7.03125 33.5157 7.03125Z" fill="#444444"/>
<path d="M35.2736 5.27344C35.2736 6.24258 34.4849 7.03125 33.5157 7.03125V3.51562C34.4849 3.51562 35.2736 4.3043 35.2736 5.27344Z" fill="#282828"/>
<path d="M45.8204 21.2109C45.8204 17.3277 42.6724 14.1797 38.7892 14.1797H28.2423C24.3591 14.1797 21.2111 17.3277 21.2111 21.2109V50.9766L23.6061 53.9062H43.4767L45.8204 50.9766V21.2109Z" fill="#FF4949"/>
<path d="M45.8204 21.2109V50.9766L43.4767 53.9062H33.5157V14.1797H38.7892C42.6728 14.1797 45.8204 17.3273 45.8204 21.2109Z" fill="#FF193D"/>
<path d="M21.2111 50.9766V58.2422C21.2111 59.213 21.9981 60 22.9689 60H44.0626C45.0334 60 45.8204 59.213 45.8204 58.2422V50.9766H21.2111Z" fill="#FF6C6C"/>
<path d="M45.8204 50.9766V58.2422C45.8204 59.2125 45.0329 60 44.0626 60H33.5157V50.9766H45.8204Z" fill="#FF4949"/>
<path d="M37.0314 22.8516H30.0001C29.0296 22.8516 28.2427 23.6382 28.2423 24.6088L28.2365 42.1869C28.2363 42.6532 28.4215 43.1005 28.7511 43.4302C29.0808 43.7599 29.528 43.9453 29.9943 43.9453H37.0314C38.0022 43.9453 38.7892 43.1583 38.7892 42.1875V24.6094C38.7892 23.6386 38.0022 22.8516 37.0314 22.8516Z" fill="#FFD400"/>
<path d="M38.7892 24.6094V42.1875C38.7892 43.1578 38.0017 43.9453 37.0314 43.9453H33.5157V22.8516H37.0314C38.0017 22.8516 38.7892 23.6391 38.7892 24.6094Z" fill="#FDBF00"/>
</svg>
