<svg width="50" height="50" viewBox="0 0 50 50" fill="none" xmlns="http://www.w3.org/2000/svg">
<g clip-path="url(#clip0_683:1440)">
<path d="M43.6154 22.2071L26.0373 7.14853C25.7733 6.91406 25.4219 6.79697 25.0703 6.79697C24.7188 6.79697 24.3672 6.91406 24.1033 7.14853L6.42754 22.2071C6.10566 22.5 5.92969 22.8809 5.92969 23.3204V48.5351C5.92969 49.3556 6.57412 50 7.39453 50H42.6484C43.4688 50 44.1133 49.3556 44.1133 48.5351V23.3204C44.1133 22.8809 43.9373 22.5 43.6154 22.2071Z" fill="#FD003A"/>
<path d="M44.1133 23.3204V48.5352C44.1133 49.3556 43.4688 50 42.6484 50H25.0703V6.79689C25.4219 6.79689 25.7734 6.91398 26.0373 7.14845L43.6154 22.207C43.9373 22.5 44.1133 22.8809 44.1133 23.3204Z" fill="#E50027"/>
<path d="M32.3945 32.2266H17.7461C16.9257 32.2266 16.2812 32.871 16.2812 33.6914V50H33.8594V33.6914C33.8594 32.871 33.2149 32.2266 32.3945 32.2266Z" fill="#B7E0F6"/>
<path d="M33.8594 33.6914V50H25.0703V32.2266H32.3945C33.2149 32.2266 33.8594 32.871 33.8594 33.6914Z" fill="#A4D9F5"/>
<path d="M41.6929 16.7256L35.8335 11.6859C35.5102 11.4084 35.3242 11.0021 35.3242 10.5759V4.39453C35.3242 3.58486 35.9794 2.92969 36.7891 2.92969H42.6484C43.4581 2.92969 44.1133 3.58486 44.1133 4.39453V15.6154C44.1133 16.8673 42.6391 17.5373 41.6929 16.7256Z" fill="#A4D9F5"/>
<path d="M48.4487 18.6328L27.9409 1.05469C27.1206 0.351563 26.0952 0 25.0699 0C24.0446 0 23.0193 0.351563 22.1989 1.05469L1.59348 18.6328C-2.80105 22.4122 2.94104 29.0918 7.33557 25.3126L25.07 10.1953L42.736 25.3125C43.5272 25.9862 44.5525 26.3085 45.5485 26.3085C46.808 26.3085 48.068 25.8105 48.9177 24.8437C50.4994 22.9688 50.2945 20.2149 48.4487 18.6328Z" fill="#B7E0F6"/>
<path d="M48.918 24.8437C48.0683 25.8105 46.8083 26.3085 45.5487 26.3085C44.5527 26.3085 43.5274 25.9862 42.7363 25.3125L25.0703 10.1952V0C26.0956 0 27.121 0.351563 27.9413 1.05469L48.4491 18.6328C50.2949 20.2149 50.4998 22.9688 48.918 24.8437Z" fill="#A4D9F5"/>
<path d="M29.4648 17.5781H20.6758C19.8554 17.5781 19.2109 18.2226 19.2109 19.043V27.832C19.2109 28.6524 19.8554 29.2969 20.6758 29.2969H29.4648C30.2853 29.2969 30.9297 28.6524 30.9297 27.832V19.043C30.9297 18.2226 30.2853 17.5781 29.4648 17.5781Z" fill="#FFCC33"/>
<path d="M26.5352 41.0156C27.3442 41.0156 28 40.3598 28 39.5508C28 38.7418 27.3442 38.0859 26.5352 38.0859C25.7261 38.0859 25.0703 38.7418 25.0703 39.5508C25.0703 40.3598 25.7261 41.0156 26.5352 41.0156Z" fill="#FFCC33"/>
<path d="M29.4648 29.2969H25.0703V17.5781H29.4648C30.2853 17.5781 30.9297 18.2226 30.9297 19.043V27.832C30.9297 28.6524 30.2853 29.2969 29.4648 29.2969Z" fill="#FEA832"/>
</g>
<defs>
<clipPath id="clip0_683:1440">
<rect width="50" height="50" fill="white"/>
</clipPath>
</defs>
</svg>
