<svg width="23" height="24" viewBox="0 0 23 24" xmlns="http://www.w3.org/2000/svg">
<g clip-path="url(#clip0_613:1637)">
<path d="M22.7607 7.64482C22.7075 6.43917 22.5126 5.61029 22.2333 4.89206C21.9451 4.12967 21.5019 3.4471 20.9211 2.87969C20.3537 2.30344 19.6666 1.85567 18.9131 1.57205C18.1907 1.29275 17.3661 1.09778 16.1605 1.04462C14.9458 0.986965 14.5602 0.973633 11.4795 0.973633C8.39879 0.973633 8.01318 0.986965 6.80302 1.04012C5.59737 1.09328 4.76849 1.28842 4.05043 1.56754C3.28787 1.85567 2.60531 2.29894 2.03789 2.87969C1.46164 3.4471 1.01404 4.13417 0.730248 4.88773C0.450954 5.61029 0.255986 6.43466 0.202828 7.64032C0.145169 8.85498 0.131836 9.24059 0.131836 12.3213C0.131836 15.402 0.145169 15.7876 0.198326 16.9978C0.251484 18.2034 0.446626 19.0323 0.725919 19.7505C1.01404 20.5129 1.46164 21.1955 2.03789 21.7629C2.60531 22.3392 3.29237 22.7869 4.04593 23.0706C4.76849 23.3499 5.59287 23.5448 6.7987 23.598C8.00868 23.6513 8.39446 23.6645 11.4752 23.6645C14.5559 23.6645 14.9415 23.6513 16.1517 23.598C17.3573 23.5448 18.1862 23.3499 18.9042 23.0706C20.4292 22.481 21.6349 21.2753 22.2244 19.7505C22.5036 19.028 22.6987 18.2034 22.7519 16.9978C22.805 15.7876 22.8183 15.402 22.8183 12.3213C22.8183 9.24059 22.8138 8.85498 22.7607 7.64482ZM20.7173 16.9091C20.6685 18.0173 20.4824 18.6157 20.3272 19.0147C19.9459 20.0032 19.1614 20.7877 18.1729 21.169C17.7739 21.3242 17.1712 21.5103 16.0673 21.5589C14.8705 21.6123 14.5116 21.6254 11.484 21.6254C8.45645 21.6254 8.093 21.6123 6.90051 21.5589C5.79234 21.5103 5.19393 21.3242 4.79498 21.169C4.30306 20.9872 3.85529 20.6991 3.49184 20.3223C3.11507 19.9543 2.82694 19.5111 2.64513 19.0192C2.48999 18.6202 2.30385 18.0173 2.25519 16.9136C2.20186 15.7168 2.1887 15.3577 2.1887 12.3301C2.1887 9.30258 2.20186 8.93913 2.25519 7.74681C2.30385 6.63864 2.48999 6.04022 2.64513 5.64128C2.82694 5.14919 3.11507 4.70159 3.49635 4.33797C3.86412 3.96119 4.30739 3.67307 4.79949 3.49143C5.19843 3.33629 5.80134 3.15015 6.90501 3.10132C8.10183 3.04816 8.46095 3.03483 11.4883 3.03483C14.5204 3.03483 14.8793 3.04816 16.0718 3.10132C17.18 3.15015 17.7784 3.33629 18.1774 3.49143C18.6693 3.67307 19.1171 3.96119 19.4805 4.33797C19.8573 4.70592 20.1454 5.14919 20.3272 5.64128C20.4824 6.04022 20.6685 6.64297 20.7173 7.74681C20.7705 8.94363 20.7838 9.30258 20.7838 12.3301C20.7838 15.3577 20.7705 15.7123 20.7173 16.9091Z"/>
<path d="M11.4786 6.49219C8.26061 6.49219 5.64966 9.10297 5.64966 12.3212C5.64966 15.5394 8.26061 18.1501 11.4786 18.1501C14.6968 18.1501 17.3076 15.5394 17.3076 12.3212C17.3076 9.10297 14.6968 6.49219 11.4786 6.49219ZM11.4786 16.1023C9.39095 16.1023 7.69752 14.409 7.69752 12.3212C7.69752 10.2333 9.39095 8.54005 11.4786 8.54005C13.5665 8.54005 15.2598 10.2333 15.2598 12.3212C15.2598 14.409 13.5665 16.1023 11.4786 16.1023Z"/>
<path d="M18.899 6.26217C18.899 7.01364 18.2897 7.62296 17.538 7.62296C16.7866 7.62296 16.1772 7.01364 16.1772 6.26217C16.1772 5.51051 16.7866 4.90137 17.538 4.90137C18.2897 4.90137 18.899 5.51051 18.899 6.26217Z"/>
</g>
<defs>
<clipPath id="clip0_613:1637">
<rect width="22.6909" height="22.6909" fill="white" transform="translate(0.0908203 0.974121)"/>
</clipPath>
</defs>
</svg>
