<svg width="40" height="40" viewBox="0 0 40 40" fill="none" xmlns="http://www.w3.org/2000/svg">
<path d="M39.1059 21.1602C41.1215 18.9101 39.5044 15.3008 36.4809 15.3008H27.6214C29.7073 11.6211 30.1998 8.26953 28.9809 5.97258C28.2073 4.49617 26.7542 3.60555 25.0902 3.60555H25.0668C22.5356 3.60555 22.1137 5.57422 21.762 7.14445C21.2934 9.30078 20.6605 12.2305 16.2073 15.3008H11.7188C11.0624 15.3008 10.5469 15.8163 10.5469 16.4727V32.8789C10.5469 33.5351 11.0624 34.0508 11.7188 34.0508H14.051L14.9888 34.3086C18.6215 35.3398 22.3948 36.3945 26.3088 36.3945H31.7934C34.2779 36.3945 35.9888 33.8867 35.0512 31.5898C37.0902 31.0272 38.1683 28.8241 37.3949 26.9023C38.5902 26.5742 39.434 25.707 39.7853 24.6758C40.2077 23.5273 40.0199 22.1913 39.1059 21.1602Z" fill="#FEDBAB"/>
<path d="M37.3949 26.9023C38.1683 28.8241 37.0902 31.0272 35.0512 31.5898C35.9888 33.8866 34.2778 36.3945 31.7934 36.3945H26.3088C22.3948 36.3945 18.6215 35.3398 14.9888 34.3086L14.051 34.0508H11.7188C11.0624 34.0508 10.5469 33.5351 10.5469 32.8789V24.6758H39.7853C39.434 25.707 38.5903 26.5742 37.3949 26.9023Z" fill="#FEC478"/>
<path d="M9.375 12.957H1.17188C0.515547 12.957 0 13.4726 0 14.1289V35.2227C0 35.8788 0.515547 36.3945 1.17188 36.3945H9.375C11.3205 36.3945 12.8906 34.8241 12.8906 32.8789V16.4727C12.8906 14.5273 11.3205 12.957 9.375 12.957Z" fill="#17ACE8"/>
<path d="M12.8906 24.6758V32.8789C12.8906 34.8241 11.3205 36.3945 9.375 36.3945H1.17188C0.515547 36.3945 0 35.8788 0 35.2227V24.6758H12.8906Z" fill="#1689FC"/>
<path d="M7.03125 31.707C7.67846 31.707 8.20312 31.1824 8.20312 30.5352C8.20312 29.8879 7.67846 29.3633 7.03125 29.3633C6.38404 29.3633 5.85938 29.8879 5.85938 30.5352C5.85938 31.1824 6.38404 31.707 7.03125 31.707Z" fill="#C5C9F7"/>
</svg>
