<svg width="40" height="40" viewBox="0 0 40 40" fill="none" xmlns="http://www.w3.org/2000/svg">
<path d="M31.1252 33.1868L20.6252 39.8187C20.247 40.0579 19.7594 40.0628 19.3737 39.8187L8.87366 33.1868C8.14624 32.727 8.14632 31.6656 8.87366 31.2058L19.2221 24.67C19.6001 24.4314 20.083 24.4292 20.4604 24.6622L31.1127 31.1981C31.8515 31.6503 31.8576 32.7237 31.1252 33.1868Z" fill="#59C36A"/>
<path d="M31.1258 33.1869L20.6258 39.8188C20.4344 39.9399 20.2172 40.0001 20 40.0001V24.499C20.3545 24.5457 19.6141 24.1427 31.1133 31.1981C31.852 31.6504 31.8581 32.7238 31.1258 33.1869Z" fill="#00A66C"/>
<path d="M31.7432 16.6079C30.7401 19.5114 28.9096 21.9891 27.1401 24.3849C25.3964 26.7457 26.0802 25.847 20.9612 33.1588C20.4959 33.8267 19.5046 33.8267 19.0393 33.1588C14.2853 26.3891 14.8717 27.1079 12.8604 24.3849C11.0909 21.9891 9.26042 19.5114 8.25729 16.6079C6.80573 12.4045 7.43308 8.24578 10.0245 4.89703C12.3971 1.83102 16.1268 0 20.0003 0C23.8737 0 27.6034 1.83102 29.976 4.89703C32.6728 8.38172 33.1345 12.579 31.7432 16.6079Z" fill="#FF4D4D"/>
<path d="M31.743 16.6079C30.7399 19.5114 28.9094 21.9891 27.1399 24.3849C25.3961 26.7457 26.0799 25.847 20.9609 33.1588C20.7422 33.4727 20.3828 33.6602 20 33.6602V0C23.8734 0 27.6031 1.83102 29.9758 4.89703C32.6726 8.38172 33.1342 12.579 31.743 16.6079Z" fill="#CD0000"/>
<path d="M25.4459 12.6045C25.4459 15.6064 23.0029 18.049 19.9998 18.049C16.9967 18.049 14.5537 15.6064 14.5537 12.6045C14.5537 9.60176 16.9967 7.15918 19.9998 7.15918C23.0029 7.15918 25.4459 9.60176 25.4459 12.6045Z" fill="#F0F7FF"/>
<path d="M25.4461 12.6045C25.4461 15.6064 23.0031 18.049 20 18.049V7.15918C23.0031 7.15918 25.4461 9.60176 25.4461 12.6045Z" fill="#DFE7F4"/>
</svg>
