<svg width="156" height="34" viewBox="0 0 156 34" fill="none" xmlns="http://www.w3.org/2000/svg">
<path d="M0.978769 22.03C0.668728 22.7483 0.952932 23.1648 1.13379 23.2833C1.20269 23.3643 1.38701 23.5264 1.57303 23.5264C1.80556 23.5264 1.88307 23.4329 2.03809 23.2833C2.16211 23.1635 2.38258 22.9341 2.47732 22.8344L3.48495 21.6747C3.89834 21.2133 5.00933 20.1409 6.14614 19.5423C7.28296 18.9437 7.99778 18.6569 8.21309 18.5884C8.72121 18.4512 9.8098 18.1581 10.0992 18.0833C10.3885 18.0085 10.9776 17.9275 11.236 17.8963L12.6829 17.8402C12.8637 17.8339 13.3081 17.8065 13.6388 17.7466C14.0522 17.6718 14.4398 17.5596 14.8531 17.3912C15.2665 17.2229 15.1374 17.3351 15.9125 16.8488C16.6876 16.3625 17.0234 15.9697 17.2301 15.7639C17.3955 15.5993 17.7296 15.1965 17.876 15.0157C17.9966 14.7726 18.2481 14.2713 18.2894 14.2114C18.3308 14.1516 18.41 14.1865 18.4445 14.2114C18.9009 14.7289 19.9223 15.8313 20.3564 16.1006C20.8954 16.4351 21.1539 16.4927 21.4866 16.5668L21.4932 16.5682C21.7619 16.6281 22.1563 16.5932 22.32 16.5682C22.4233 16.5433 22.6507 16.4822 22.7334 16.4373C22.816 16.3924 22.8367 16.456 22.8367 16.4934C23.0606 17.3725 24.0304 19.4226 26.118 20.5898C28.7275 22.0488 31.1045 22.4977 31.5954 22.6473C32.0863 22.7969 35.5484 23.4329 36.4785 23.3581C37.4087 23.2833 37.3053 23.2085 37.5379 22.8718C37.7704 22.5351 37.6412 22.348 37.6412 22.0862C37.6412 21.8243 37.2795 21.6185 37.0728 21.525C36.8661 21.4315 36.2202 21.2819 36.091 21.2631C35.9618 21.2444 34.9542 21.0387 34.6441 20.9826C34.3341 20.9265 33.6623 20.5711 33.4556 20.4588C33.2489 20.3466 33.0423 20.1596 32.4997 19.6919C32.0656 19.3178 31.337 18.5135 31.027 18.1581C30.5878 17.6219 29.6783 16.5271 29.5543 16.4373C29.4303 16.3475 29.5026 16.2627 29.5543 16.2315L30.6911 14.7539C30.9236 14.386 31.4094 13.4894 31.492 12.846C31.5747 12.2025 31.4576 11.5803 31.3887 11.3496C31.3198 10.9755 31.1665 10.1861 31.1045 10.0215C31.027 9.81579 31.0787 8.78702 31.1045 8.6748C31.1303 8.56257 31.182 8.37552 31.3887 8.28199C31.5954 8.18847 31.6471 8.20717 31.9829 8.24458C32.2516 8.27451 32.4566 8.43163 32.5255 8.50645C32.5514 8.53763 32.6909 8.67105 33.0423 8.95537C33.4815 9.31076 33.6365 9.62874 34.4374 10.433C35.2384 11.2374 35.7809 11.5179 36.1427 11.705C36.5044 11.892 37.2536 12.0604 37.7445 12.1165C38.1373 12.1614 38.8039 12.0978 39.0881 12.0604L39.3723 11.9856C39.3981 11.9856 39.4601 11.993 39.5014 12.023C39.1397 12.2599 38.3595 13.033 38.1321 14.2301C37.8479 15.7265 38.3646 15.9323 39.0105 16.8675C39.6502 17.7937 40.3152 18.3714 40.579 18.6005L40.5866 18.6071C40.7933 18.7866 41.0517 18.8814 41.155 18.9063C41.2584 18.925 41.5219 18.925 41.7492 18.7754C42.0335 18.5884 42.1885 18.2891 42.2402 18.1769C42.2815 18.0871 42.3263 17.8152 42.3435 17.6905C42.3607 17.5159 42.4003 17.0845 42.421 16.7553C42.4468 16.3438 42.421 16.6056 42.8086 16.1567C43.1961 15.7078 43.0669 15.82 43.1961 15.6704C43.3253 15.5208 43.2995 15.3898 43.3511 15.2963C43.4028 15.2028 43.2995 15.2215 43.3511 14.9409C43.3925 14.7165 43.2995 14.4858 43.2478 14.3985C43.0841 13.9309 42.7569 12.9769 42.7569 12.9021C42.7569 12.8086 42.7052 12.6963 42.8086 12.6402C42.9119 12.5841 42.9894 12.6028 43.1186 12.5841C43.2219 12.5691 43.2478 12.6527 43.2478 12.6963L43.9712 14.0057C44.264 14.492 44.9375 15.5544 45.2889 15.9136C45.7281 16.3625 46.1157 16.4934 46.374 16.6056C46.6324 16.7179 46.6324 16.6805 46.8649 16.6805C47.0975 16.6805 46.9941 16.6431 47.4075 16.7553C47.8209 16.8675 47.8726 17.1107 48.0018 17.1855C48.1309 17.2603 48.751 18.0459 49.7845 19.2617C50.818 20.4775 51.9031 20.8703 52.0323 20.9265C52.1615 20.9826 52.7299 21.0948 53.0658 21.0948C53.4016 21.0948 53.4533 20.9639 53.5825 20.8703C53.6858 20.7955 53.7289 20.6646 53.7375 20.6085C53.7634 20.4651 53.8099 20.1521 53.7892 20.0473C53.7685 19.9426 53.6428 19.8042 53.5825 19.7481L50.3012 16.5682L47.6659 14.0057C46.3913 12.7088 43.7283 10.0926 43.2736 10.0028C42.7052 9.89061 42.5502 9.98413 42.2143 10.059C41.8784 10.1338 41.5167 10.3956 41.4134 10.433C41.31 10.4705 41.3359 10.433 41.31 10.433C41.2842 10.433 41.2584 10.3208 41.2067 10.2647C41.155 10.2086 41.0775 10.0964 40.9225 10.059C40.7675 10.0215 40.7675 10.059 40.5349 10.059C40.3024 10.059 39.579 10.0402 38.9847 9.94672C38.3905 9.8532 37.2795 9.44169 37.1761 9.40428C37.0935 9.37436 36.625 9.11748 36.401 8.99278C36.2891 8.91172 35.9618 8.66357 35.5484 8.3194C35.135 7.97523 34.5149 7.29063 34.2566 6.99135C33.6623 6.23693 32.2878 4.74677 31.5437 4.82159C30.6136 4.91512 30.6653 5.00864 30.5102 5.06476C30.3552 5.12087 30.0969 5.2518 29.5284 5.81295C29.0737 6.26187 28.8567 6.56114 28.805 6.65467C28.5639 7.02876 27.9576 7.93408 27.4615 8.56256C26.8414 9.34816 26.4022 9.64744 26.273 9.75967C26.1438 9.8719 25.6788 10.2647 24.1544 11.5366C22.63 12.8086 22.8884 12.6963 22.63 12.9582C22.3717 13.2201 22.2683 13.4819 22.2166 13.6129C22.1753 13.7176 22.165 13.8186 22.165 13.856V14.4733C22.1822 14.573 22.1805 14.7576 22.0358 14.6977C21.8911 14.6379 21.8549 14.573 21.8549 14.5481L21.4415 14.0992L20.899 13.4819L20.3305 12.7524L19.788 11.7424L18.8062 10.3208C18.6167 10.1026 18.1448 9.66241 17.7727 9.64744C17.3076 9.62874 17.3852 9.68485 17.1268 9.79708C16.8684 9.90931 16.7651 10.0215 16.6617 10.0964C16.5584 10.1712 16.4034 10.3395 16.2742 10.433C16.1708 10.5079 15.4905 11.1251 15.1632 11.4244C15.0512 11.5179 14.7911 11.7386 14.6465 11.8733C14.5018 12.008 13.0704 12.8148 12.3728 13.2014C11.0896 13.962 8.24926 15.6218 7.15378 16.1754C5.78443 16.8675 4.54426 17.6905 4.02753 18.0085C3.61414 18.2629 3.18352 18.738 3.01989 18.9437L2.08977 20.197C1.84862 20.5087 1.28881 21.3118 0.978769 22.03Z" fill="#E4002B"/>
<path d="M2.46191 21.2853C2.38538 21.4005 2.46191 21.4719 2.50975 21.4932L2.62933 21.4772L2.74892 21.3813C2.85257 21.2907 3.19379 20.9464 3.72955 20.2941C4.39924 19.4788 4.63842 19.4468 4.97327 19.159C5.30812 18.8712 5.83431 18.5675 6.0974 18.4076C6.30788 18.2797 6.72723 18.0665 6.9106 17.976C6.99033 17.944 7.30764 17.8097 7.93906 17.5283C8.57049 17.2469 9.35021 17.0593 9.66114 17.0007C9.86843 16.9528 10.3213 16.8472 10.4743 16.8089C10.6657 16.7609 11.7181 16.633 12.0051 16.617C12.2347 16.6042 12.4675 16.5904 12.5552 16.585C12.7625 16.5957 13.2249 16.6106 13.4162 16.585C13.6076 16.5595 13.9424 16.4785 14.0859 16.4412C14.0461 16.4678 14.1433 16.4508 14.8513 16.1694C15.7362 15.8177 16.4059 15.2421 16.7647 14.9224C17.0517 14.6666 17.3626 14.1869 17.4822 13.9791L17.7692 13.4036C17.8888 13.281 18.2332 13.1829 18.6542 13.7713C19.1804 14.5067 20.0893 15.1941 20.448 15.354C20.8068 15.5139 21.62 15.5459 21.907 15.5299C22.1366 15.5171 21.9708 15.4819 21.8592 15.4659C21.7316 15.4233 21.4191 15.3029 21.1895 15.1622C20.9025 14.9863 20.3524 14.5706 19.587 13.4835C18.8216 12.3963 18.4629 11.6609 17.9367 11.2452C17.5488 10.9388 17.3626 10.9308 17.267 10.9895C17.2749 10.9628 16.9847 11.1461 15.7602 12.0926C14.5356 13.039 13.5597 13.5421 13.2249 13.6753L9.15887 15.8177L6.67143 17.1446L5.54729 17.7361C5.3719 17.8374 4.935 18.1134 4.59059 18.4076C4.16007 18.7753 3.75347 19.3669 3.25119 20.0543C2.74892 20.7418 2.55758 21.1415 2.46191 21.2853Z" fill="#161616"/>
<path d="M39.5499 15.7923C39.7959 16.0451 40.3463 16.7402 40.5907 17.0561L40.9219 17.3221C41.0244 17.4219 41.2719 17.5982 41.4422 17.5051C41.6551 17.3887 41.6551 17.1725 41.7024 17.0893C41.7403 17.0228 41.7813 16.7623 41.7971 16.6404C41.7971 16.4187 41.8018 15.9486 41.8207 15.8422C41.8444 15.7092 42.0809 15.3434 42.3411 15.2104C42.5985 15.0788 42.6244 14.9146 42.6478 14.7662L42.6486 14.7614C42.6723 14.6117 42.5303 14.2958 42.3648 13.9133C42.1992 13.5309 42.0809 12.9655 42.0809 12.6496C42.0809 12.3337 42.2228 12.1674 42.3174 12.0177C42.3931 11.898 42.6013 11.857 42.6959 11.8514C42.7748 11.8459 42.9703 11.8415 43.1217 11.8681C43.2731 11.8947 43.4371 12.1009 43.5002 12.2006L44.5409 13.9466C44.7302 14.257 45.2175 14.941 45.6527 15.1937C46.1967 15.5097 46.4333 15.5429 46.7408 15.5429C47.0483 15.5429 47.1193 15.6593 47.3794 15.7923C47.5876 15.8988 48.1285 16.4353 48.3729 16.6903C48.8933 17.3 50.0666 18.6092 50.5964 18.9683C51.2587 19.4173 51.8028 19.4672 52.0393 19.4838C52.2759 19.5004 52.2049 19.4506 52.1576 19.384C52.1197 19.3308 48.7829 16.2136 47.1193 14.6616C45.976 13.6251 43.6232 11.4856 43.3582 11.2196C43.0271 10.887 42.7669 10.9701 42.6723 10.9701C42.5776 10.9701 42.2701 11.0533 41.8917 11.2196C41.5889 11.3526 40.9455 11.7849 40.6617 11.9845L39.7391 12.9489C39.5499 13.2039 39.1383 13.8468 39.0059 14.3789C38.8403 15.0441 39.2424 15.4764 39.5499 15.7923Z" fill="#161616"/>
<path d="M23.1158 14.6124C23.1758 15.0647 23.7571 16.2206 24.0403 16.7421C24.0403 16.7609 24.1153 16.923 24.4151 17.4205C24.715 17.9181 25.5062 18.8591 25.8643 19.2675C26.414 19.7449 28.188 20.8807 30.8864 21.6044C34.2595 22.509 35.8087 22.4525 36.4583 22.4902C37.1079 22.5278 36.908 22.3771 36.8081 22.2828C36.7081 22.1886 36.3084 22.0378 35.5338 21.9436C34.7592 21.8494 33.7098 21.529 33.1602 21.1521C32.6105 20.7751 31.3862 19.5878 30.6116 18.5325C29.837 17.4771 28.9875 16.6101 28.9625 16.5159C28.9375 16.4217 28.6627 16.3274 29.2624 15.5548C29.862 14.7821 30.4117 14.0094 30.7615 13.2744C31.0414 12.6864 30.9281 11.7478 30.8365 11.352C30.7115 10.9688 30.4617 10.0253 30.4617 9.31666C30.4617 8.60804 30.6449 8.02883 30.7365 7.82781C30.8365 7.64563 31.1563 7.27373 31.636 7.24357C32.2357 7.20588 32.2857 7.43204 32.8603 7.69588C33.435 7.95973 34.3095 9.16589 34.6093 9.56166C34.8492 9.87827 35.6421 10.4851 36.0085 10.749C36.3917 10.9249 37.3528 11.2654 38.1323 11.2201C39.1068 11.1636 39.8314 10.8809 39.9813 10.862C40.1012 10.847 40.4144 10.7804 40.556 10.749C40.531 10.7238 40.451 10.6736 40.3311 10.6736C40.1812 10.6736 38.3322 10.504 37.6326 10.3532C36.933 10.2024 35.159 9.14704 34.2096 7.94088C33.2601 6.73473 32.3106 5.60395 31.8859 5.49087C31.4611 5.37779 31.0364 5.47202 30.5866 5.73587C30.2268 5.94695 29.6705 6.66562 29.4373 6.99857C29.1124 7.48229 28.4328 8.51003 28.3129 8.75126C28.163 9.0528 26.7638 10.372 26.414 10.6736C26.0642 10.9751 23.7655 13.0482 23.4157 13.4063C23.0659 13.7644 23.0409 14.047 23.1158 14.6124Z" fill="#161616"/>
<path d="M60.9788 21V11.5949H62.9942V15.2898H67.1593V11.5949H69.1747V21H67.1593V17.1708H62.9942V21H60.9788ZM71.3275 21V11.5949H78.3813V13.4759H73.3429V15.357H77.3737V17.1036H73.3429V19.119H78.3813V21H71.3275ZM79.3875 21L81.8731 11.5949H86.1054L88.591 21H86.5084L85.971 18.9174H82.0074L81.47 21H79.3875ZM82.4777 17.0364H85.5008L84.5603 13.4759H83.4182L82.4777 17.0364ZM88.6619 13.4759V11.5949H96.7233V13.4759H93.7003V21H91.6849V13.4759H88.6619Z" fill="#161616"/>
<path d="M101.767 18.0441H103.85C103.93 18.3128 104.06 18.5502 104.239 18.7562C104.633 19.222 105.22 19.4549 105.999 19.4549C107.164 19.4549 107.746 19.0966 107.746 18.38C107.746 18.2009 107.683 18.0396 107.558 17.8963C107.441 17.753 107.253 17.6276 106.994 17.5201C106.743 17.4126 106.496 17.3275 106.255 17.2648C106.022 17.1932 105.717 17.1081 105.341 17.0096C105.287 17.0006 105.242 16.9916 105.207 16.9827C105.18 16.9737 105.139 16.9648 105.086 16.9558C105.041 16.9379 105.001 16.9245 104.965 16.9155C103.102 16.4676 102.17 15.5674 102.17 14.2149C102.17 13.4088 102.497 12.728 103.151 12.1727C103.814 11.6084 104.696 11.3262 105.798 11.3262C107.231 11.3262 108.315 11.8099 109.049 12.7773C109.354 13.2072 109.569 13.6864 109.694 14.2149H107.612C107.558 14.0268 107.455 13.8477 107.303 13.6775C106.962 13.3192 106.461 13.14 105.798 13.14C105.287 13.14 104.902 13.2386 104.642 13.4356C104.383 13.6237 104.253 13.8611 104.253 14.1477C104.253 14.6672 104.844 15.0614 106.026 15.3301C106.331 15.4017 106.519 15.4465 106.59 15.4644C106.671 15.4824 106.855 15.5316 107.141 15.6122C107.437 15.6928 107.634 15.76 107.733 15.8138C107.84 15.8586 108.015 15.9347 108.257 16.0422C108.507 16.1407 108.682 16.2348 108.781 16.3243C108.888 16.4139 109.022 16.5348 109.184 16.6871C109.354 16.8304 109.475 16.9782 109.546 17.1305C109.618 17.2828 109.681 17.4619 109.734 17.6679C109.797 17.865 109.829 18.0799 109.829 18.3128C109.829 19.1459 109.493 19.849 108.821 20.4223C108.149 20.9866 107.209 21.2687 105.999 21.2687C104.405 21.2687 103.236 20.7313 102.493 19.6564C102.143 19.1906 101.901 18.6532 101.767 18.0441ZM110.838 13.4759V11.5949H118.9V13.4759H115.877V21H113.861V13.4759H110.838ZM121.387 19.8311C120.402 18.8637 119.909 17.6858 119.909 16.2975C119.909 14.9091 120.402 13.7357 121.387 12.7773C122.381 11.8099 123.613 11.3262 125.082 11.3262C126.551 11.3262 127.778 11.8099 128.763 12.7773C129.758 13.7357 130.255 14.9091 130.255 16.2975C130.255 17.6858 129.758 18.8637 128.763 19.8311C127.778 20.7895 126.551 21.2687 125.082 21.2687C123.613 21.2687 122.381 20.7895 121.387 19.8311ZM122.905 14.0805C122.341 14.6538 122.059 15.3928 122.059 16.2975C122.059 17.2021 122.341 17.9456 122.905 18.5278C123.479 19.1011 124.204 19.3877 125.082 19.3877C125.96 19.3877 126.681 19.1011 127.245 18.5278C127.818 17.9456 128.105 17.2021 128.105 16.2975C128.105 15.3928 127.818 14.6538 127.245 14.0805C126.681 13.4983 125.96 13.2072 125.082 13.2072C124.204 13.2072 123.479 13.4983 122.905 14.0805ZM131.999 21V11.5949H134.619L138.314 18.2457H138.448L138.314 17.1036V11.5949H140.329V21H137.709L134.015 14.3493H133.88L134.015 15.4913V21H131.999ZM142.479 21V11.5949H149.533V13.4759H144.495V15.357H148.525V17.1036H144.495V19.119H149.533V21H142.479Z" fill="#E4002B"/>
</svg>
