<svg width="50" height="50" viewBox="0 0 50 50" fill="none" xmlns="http://www.w3.org/2000/svg">
<path d="M23.4375 35.2539C23.4375 37.6772 21.4662 39.6485 19.043 39.6485H16.1133C14.1823 39.6485 14.1744 36.7188 16.1133 36.7188H19.043C19.8498 36.7188 20.5078 36.0621 20.5078 35.2539V32.5703C20.5078 30.6394 23.4375 30.6315 23.4375 32.5703V35.2539Z" fill="#C1001F"/>
<path d="M42.6758 16.2109C41.8554 16.2109 41.2109 16.8554 41.2109 17.6758V29.3945C41.2109 30.2147 41.8554 30.8594 42.6758 30.8594C46.748 30.8594 50 27.5488 50 23.5352C50 19.4922 46.7188 16.2109 42.6758 16.2109Z" fill="#E50027"/>
<path d="M50 23.5352C50 27.5488 46.748 30.8594 42.6758 30.8594C41.8554 30.8594 41.2109 30.2147 41.2109 29.3945V23.5352H50Z" fill="#C1001F"/>
<path d="M35.9374 4.87289L28.8771 10.1169C26.1523 12.1678 22.5585 13.2811 19.043 13.2811C18.2226 13.2811 17.5781 13.9255 17.5781 14.7459V32.3241C17.5781 33.1443 18.2226 33.7889 19.043 33.7889C19.9514 33.7889 20.8301 33.8767 21.7381 34.0232C24.2579 34.4333 26.8555 35.4589 28.9064 37.0116L35.9374 42.285C36.8751 42.9881 38.2812 42.3142 38.2812 41.1131V6.04466C38.2812 4.84359 36.9044 4.14046 35.9374 4.87289Z" fill="#CAE8F9"/>
<path d="M17.5781 23.5352H38.2812V41.1133C38.2812 42.3144 36.8751 42.9883 35.9374 42.2851L28.9064 37.0116C26.8555 35.459 24.2579 34.4335 21.7381 34.0232C20.8301 33.8769 19.9514 33.7891 19.043 33.7891C18.2226 33.7891 17.5781 33.1444 17.5781 32.3242V23.5352Z" fill="#B7E0F6"/>
<path d="M7.32422 13.2812C3.28125 13.2812 0 16.5625 0 20.6055V26.4648C0 30.5078 3.28125 33.7891 7.32422 33.7891H19.043V13.2812H7.32422Z" fill="#FD003A"/>
<path d="M13.1836 48.4375C10.7604 48.4375 8.78906 46.4662 8.78906 44.043V32.3242C8.78906 31.5146 9.44424 30.8594 10.2539 30.8594H16.1133C16.9229 30.8594 17.5781 31.5146 17.5781 32.3242V44.043C17.5781 46.4662 15.6068 48.4375 13.1836 48.4375Z" fill="#C1001F"/>
<path d="M0 23.5352H19.043V33.7891H7.32422C3.28125 33.7891 0 30.5078 0 26.4648V23.5352Z" fill="#E50027"/>
<path d="M39.7461 1.5625C37.3143 1.5625 35.3516 3.52529 35.3516 5.95703V41.1133C35.3516 43.5448 37.3143 45.5078 39.7461 45.5078C42.1779 45.5078 44.1406 43.5448 44.1406 41.1133V5.95703C44.1406 3.52529 42.1779 1.5625 39.7461 1.5625Z" fill="#FD003A"/>
<path d="M13.1836 22.0703H7.32422C6.51455 22.0703 5.85938 21.4151 5.85938 20.6055C5.85938 19.7958 6.51455 19.1406 7.32422 19.1406H13.1836C13.9933 19.1406 14.6484 19.7958 14.6484 20.6055C14.6484 21.4151 13.9933 22.0703 13.1836 22.0703Z" fill="#E50027"/>
<path d="M13.1836 27.9297H7.32422C6.51455 27.9297 5.85938 27.2745 5.85938 26.4648C5.85938 25.6552 6.51455 25 7.32422 25H13.1836C13.9933 25 14.6484 25.6552 14.6484 26.4648C14.6484 27.2745 13.9933 27.9297 13.1836 27.9297Z" fill="#C1001F"/>
<path d="M44.1406 23.5352V41.1133C44.1406 43.5448 42.1779 45.5078 39.7461 45.5078C37.3143 45.5078 35.3516 43.5448 35.3516 41.1133V23.5352H44.1406Z" fill="#E50027"/>
</svg>
