<svg width="40" height="40" viewBox="0 0 40 40" fill="none" xmlns="http://www.w3.org/2000/svg">
<g clip-path="url(#clip0_683:1348)">
<path d="M39.9656 1.46158L29.7425 38.2194C29.5084 39.1335 28.3131 39.3913 27.7038 38.6647L17.8363 26.6882L15.5864 24.4381L13.3127 22.1648L1.33657 12.2975C0.609856 11.6881 0.867669 10.4928 1.78173 10.2585L38.5363 0.0318906C38.9337 -0.0479532 39.3855 0.0151718 39.6612 0.336578C39.9803 0.615797 40.0543 1.06236 39.9656 1.46158Z" fill="#CAE8F9"/>
<path d="M15.5857 24.4376L17.8356 26.6877L27.703 38.6642C28.3123 39.3908 29.5077 39.133 29.7417 38.2189L39.9649 1.46101C40.0537 1.06172 39.9797 0.615231 39.6605 0.33609L15.5723 24.4242L15.5857 24.4376Z" fill="#B7E0F6"/>
<path d="M12.7034 21.6485L10.6177 27.9062C10.4769 28.3516 10.5943 28.8203 10.899 29.1016C11.1802 29.4062 11.6254 29.5469 12.094 29.3828L18.3757 27.2969C18.3989 27.2266 18.3989 27.2032 18.3989 27.2032L39.6612 0.33609L12.7034 21.6485Z" fill="#17ACE8"/>
<path d="M8.62481 31.3751C8.20309 30.9766 7.52332 30.8125 6.96082 31.3751L5.32035 33.0391C4.78137 33.5783 4.89863 34.2814 5.32035 34.6798C5.74207 35.1016 6.42184 35.2423 6.9609 34.6798L8.62488 33.0156C9.16379 32.4766 9.04676 31.7969 8.62481 31.3751ZM3.65645 36.3439C3.23441 35.922 2.53152 35.7814 1.99223 36.3439L0.35168 38.0078C-0.117227 38.4531 -0.117227 39.2031 0.35168 39.6484C0.797149 40.1172 1.54676 40.1172 1.99223 39.6484L3.65645 38.0078C4.21879 37.4688 4.07816 36.7657 3.65645 36.3439Z" fill="#1DE8F1"/>
<path d="M39.6608 0.33609L18.3984 27.2032C18.3984 27.2032 18.3984 27.2266 18.3752 27.2969L12.0935 29.3828C11.6248 29.5469 11.1797 29.4062 10.8984 29.1016L39.6608 0.33609Z" fill="#1689FC"/>
</g>
<defs>
<clipPath id="clip0_683:1348">
<rect width="40" height="40" fill="white"/>
</clipPath>
</defs>
</svg>
