<svg width="70" height="69" viewBox="0 0 70 69" fill="none" xmlns="http://www.w3.org/2000/svg">
<path d="M27.6711 32.8781C29.2261 32.8781 30.4867 31.6429 30.4867 30.1192C30.4867 28.5955 29.2261 27.3604 27.6711 27.3604C26.1161 27.3604 24.8555 28.5955 24.8555 30.1192C24.8555 31.6429 26.1161 32.8781 27.6711 32.8781Z" fill="#161616"/>
<path d="M45.716 44.4787C47.2711 44.4787 48.5317 43.2435 48.5317 41.7198C48.5317 40.1961 47.2711 38.9609 45.716 38.9609C44.161 38.9609 42.9004 40.1961 42.9004 41.7198C42.9004 43.2435 44.161 44.4787 45.716 44.4787Z" fill="#161616"/>
<path d="M68.3532 39.6447L67.3319 38.2788C66.2277 36.7911 66.2001 34.7761 67.2905 33.2614L68.2842 31.882C69.8025 29.7723 69.0985 26.8376 66.766 25.6069L65.2478 24.809C63.5915 23.9435 62.6806 22.1313 62.998 20.3056L63.2879 18.6421C63.7295 16.0997 61.7834 13.7465 59.1472 13.6383L57.4219 13.5707C55.5449 13.4895 53.9162 12.2454 53.3917 10.4737L52.9086 8.85087C52.1771 6.36248 49.3891 5.07771 46.9599 6.10552L45.3727 6.76819C43.6474 7.49848 41.6323 7.06572 40.3763 5.68629L39.2307 4.42857C37.4779 2.50818 34.4 2.5217 32.6609 4.48266L31.5292 5.7539C30.287 7.14686 28.2857 7.60667 26.5466 6.90343L24.9455 6.25429C22.5026 5.26705 19.7421 6.60591 19.0382 9.0943L18.5828 10.7307C18.0859 12.5158 16.4848 13.7871 14.6077 13.8817L12.8825 13.9764C10.2463 14.1252 8.34157 16.5054 8.82465 19.0478L9.1421 20.7113C9.48715 22.5235 8.60382 24.3492 6.96136 25.2418L5.45693 26.0667C3.15197 27.3244 2.48947 30.2726 4.04911 32.3553L5.07047 33.7212C6.17464 35.2089 6.20224 37.2239 5.11188 38.7386L4.11812 40.118C2.59989 42.2277 3.3038 45.1624 5.63636 46.3931L7.15459 47.191C8.81085 48.0565 9.72179 49.8687 9.40434 51.6944L9.11449 53.3579C8.67283 55.9003 10.6189 58.2535 13.2551 58.3617L14.9804 58.4293C16.8575 58.5104 18.4861 59.7546 19.0106 61.5263L19.4937 63.1491C20.2252 65.6375 23.0132 66.9223 25.4424 65.8945L27.0297 65.2318C28.7549 64.5015 30.77 64.9343 32.026 66.3137L33.1716 67.5714C34.9383 69.4918 38.0162 69.4783 39.7414 67.5173L40.8732 66.2461C42.1154 64.8531 44.1167 64.3933 45.8558 65.0966L47.4568 65.7457C49.8998 66.733 52.6602 65.3941 53.3641 62.9057L53.8196 61.2693C54.3165 59.4842 55.9175 58.2129 57.7946 58.1183L59.5199 58.0236C62.1561 57.8748 64.0608 55.4946 63.5777 52.9521L63.2602 51.2887C62.9152 49.4765 63.7985 47.6508 65.441 46.7582L66.9454 45.9333C69.2504 44.6891 69.9129 41.7409 68.3532 39.6447ZM20.446 30.3944C20.446 26.7159 23.4825 23.7406 27.2367 23.7406C30.9909 23.7406 34.0273 26.7159 34.0273 30.3944C34.0273 34.0729 30.9909 37.0481 27.2367 37.0481C23.4825 37.0481 20.446 34.0593 20.446 30.3944ZM28.5479 47.5561C27.9682 48.2458 26.9192 48.3405 26.2153 47.7725C25.5114 47.2045 25.4148 46.1767 25.9945 45.487L43.813 24.4574C44.3927 23.7677 45.4417 23.673 46.1456 24.241C46.8495 24.809 46.9461 25.8368 46.3664 26.5265L28.5479 47.5561ZM45.1381 48.2458C41.3839 48.2458 38.3474 45.2706 38.3474 41.5921C38.3474 37.9136 41.3839 34.9384 45.1381 34.9384C48.8922 34.9384 51.9287 37.9136 51.9287 41.5921C51.9287 45.2706 48.8922 48.2458 45.1381 48.2458Z" fill="#161616"/>
<path d="M24.8488 30.7531C26.4039 30.7531 27.6645 29.5179 27.6645 27.9942C27.6645 26.4705 26.4039 25.2354 24.8488 25.2354C23.2938 25.2354 22.0332 26.4705 22.0332 27.9942C22.0332 29.5179 23.2938 30.7531 24.8488 30.7531Z" fill="#FBE739"/>
<path d="M42.7355 41.9513C44.2906 41.9513 45.5512 40.7161 45.5512 39.1925C45.5512 37.6688 44.2906 36.4336 42.7355 36.4336C41.1805 36.4336 39.9199 37.6688 39.9199 39.1925C39.9199 40.7161 41.1805 41.9513 42.7355 41.9513Z" fill="#FBE739"/>
<path d="M65.9528 37.2448L64.9315 35.8789C63.8273 34.3912 63.7997 32.3762 64.8901 30.8615L65.8838 29.4821C67.4021 27.3724 66.6982 24.4377 64.3656 23.207L62.8474 22.4091C61.1911 21.5436 60.2802 19.7314 60.5976 17.9057L60.8875 16.2422C61.3291 13.6997 59.383 11.3466 56.7468 11.2384L55.0216 11.1708C53.1445 11.0896 51.5158 9.84545 50.9913 8.07383L50.5083 6.45096C49.7767 3.96258 46.9887 2.67781 44.5595 3.70562L42.9723 4.36829C41.247 5.09858 39.2319 4.66582 37.9759 3.28638L36.8304 2.02867C35.0775 0.108278 31.9996 0.121802 30.2605 2.08276L29.1288 3.354C27.8866 4.74696 25.8853 5.20677 24.1462 4.50353L22.5451 3.85439C20.1022 2.86714 17.3417 4.20601 16.6378 6.69439L16.1824 8.33078C15.6855 10.1159 14.0844 11.3872 12.2074 11.4818L10.4821 11.5765C7.84588 11.7253 5.94118 14.1055 6.42426 16.6479L6.74171 18.3114C7.08676 20.1236 6.20342 21.9493 4.56097 22.8419L3.05654 23.6668C0.751584 24.9245 0.0890815 27.8727 1.64872 29.9554L2.67008 31.3213C3.77425 32.809 3.80185 34.824 2.71149 36.3387L1.71773 37.7181C0.199499 39.8278 0.903407 42.7625 3.23597 43.9932L4.7542 44.7911C6.41046 45.6566 7.3214 47.4688 7.00395 49.2945L6.7141 50.958C6.27244 53.5004 8.21854 55.8536 10.8547 55.9618L12.58 56.0294C14.4571 56.1106 16.0857 57.3547 16.6102 59.1264L17.0933 60.7492C17.8248 63.2376 20.6128 64.5224 23.042 63.4946L24.6293 62.8319C26.3545 62.1016 28.3696 62.5344 29.6256 63.9138L30.7712 65.1715C32.5379 67.0919 35.6158 67.0784 37.341 65.1174L38.4728 63.8462C39.715 62.4532 41.7163 61.9934 43.4554 62.6967L45.0564 63.3458C47.4994 64.3331 50.2598 62.9942 50.9637 60.5058L51.4192 58.8694C51.9161 57.0843 53.5171 55.813 55.3942 55.7184L57.1195 55.6237C59.7557 55.4749 61.6604 53.0947 61.1773 50.5522L60.8599 48.8888C60.5148 47.0766 61.3981 45.2509 63.0406 44.3583L64.545 43.5334C66.85 42.2892 67.5125 39.341 65.9528 37.2448ZM18.0457 27.9945C18.0457 24.316 21.0821 21.3407 24.8363 21.3407C28.5905 21.3407 31.6269 24.316 31.6269 27.9945C31.6269 31.673 28.5905 34.6482 24.8363 34.6482C21.0821 34.6482 18.0457 31.6594 18.0457 27.9945ZM26.1475 45.1562C25.5678 45.8459 24.5188 45.9406 23.8149 45.3726C23.111 44.8046 23.0144 43.7768 23.5941 43.0871L41.4127 22.0575C41.9923 21.3678 43.0413 21.2731 43.7452 21.8411C44.4491 22.4091 44.5457 23.4369 43.966 24.1266L26.1475 45.1562ZM42.7377 45.8459C38.9835 45.8459 35.947 42.8707 35.947 39.1922C35.947 35.5137 38.9835 32.5385 42.7377 32.5385C46.4918 32.5385 49.5283 35.5137 49.5283 39.1922C49.5283 42.8707 46.4918 45.8459 42.7377 45.8459Z" fill="#FBE739"/>
</svg>
