<svg width="50" height="50" viewBox="0 0 50 50" fill="none" xmlns="http://www.w3.org/2000/svg">
<path d="M25 0C15.3025 0 7.42188 7.88086 7.42188 17.5781C7.42188 20.8594 8.33027 24.0528 10.0587 26.8067L23.8084 49.3081C24.043 49.689 24.3945 49.9234 24.8048 49.982C25.3612 50.0698 25.9768 49.8355 26.2989 49.2789L40.088 26.5723C41.7284 23.8771 42.5781 20.7423 42.5781 17.5781C42.5781 7.88086 34.6975 0 25 0ZM25 26.3672C20.0783 26.3672 16.2109 22.3828 16.2109 17.5781C16.2109 12.744 20.1659 8.78906 25 8.78906C29.8341 8.78906 33.7891 12.744 33.7891 17.5781C33.7891 22.3535 29.9804 26.3672 25 26.3672Z" fill="#FD003A"/>
<path d="M25 0V8.78906C29.8341 8.78906 33.7891 12.744 33.7891 17.5781C33.7891 22.3535 29.9804 26.3672 25 26.3672V49.9991C25.4999 50.0107 26.014 49.7711 26.2988 49.2789L40.0879 26.5723C41.7284 23.8771 42.5781 20.7423 42.5781 17.5781C42.5781 7.88086 34.6975 0 25 0Z" fill="#E50027"/>
</svg>
