<svg width="60" height="60" viewBox="0 0 60 60" fill="none" xmlns="http://www.w3.org/2000/svg">
<g clip-path="url(#clip0_696:3334)">
<path d="M42.1963 41.8141V49.8566C42.1963 50.7037 41.5097 51.3892 40.6637 51.3892H19.7584C18.9124 51.3892 18.2258 50.7037 18.2258 49.8566V41.8141C18.2258 31.1277 31.1923 25.8456 38.686 33.3393C40.9497 35.6031 42.1963 38.6119 42.1963 41.8141Z" fill="#F0F7FF"/>
<path d="M42.1963 10.1434V18.1964C42.1963 18.6533 42.1705 19.1162 42.1178 19.5708C41.4277 25.6203 36.3086 30.1817 30.2111 30.1817C24.1136 30.1817 18.9945 25.6203 18.3043 19.5696C18.2516 19.1151 18.2258 18.6522 18.2258 18.1964V10.1434C18.2258 9.29744 18.9124 8.61084 19.7584 8.61084H40.6637C41.5097 8.61084 42.1963 9.29744 42.1963 10.1434Z" fill="#F0F7FF"/>
<path d="M42.1964 10.1434V18.1964C42.1964 18.6533 42.1706 19.1162 42.1179 19.5708C41.4278 25.6203 36.3087 30.1817 30.2112 30.1817V8.61084H40.6638C41.5098 8.61084 42.1964 9.29744 42.1964 10.1434Z" fill="#DFE7F4"/>
<path d="M42.1964 41.8141V49.8565C42.1964 50.7037 41.5098 51.3891 40.6638 51.3891H30.2112V29.8289C33.4123 29.8289 36.4222 31.0755 38.6861 33.3392C40.9499 35.6029 42.1964 38.6118 42.1964 41.8141Z" fill="#DFE7F4"/>
<path d="M42.1179 19.3962C41.436 25.3684 36.3649 30.0059 30.2112 30.0059C24.0574 30.0059 18.9864 25.3684 18.3044 19.3962H42.1179Z" fill="#FFE14D"/>
<path d="M42.1963 51.2136H18.2258L27.2795 44.2068C28.1724 43.6315 29.1917 43.3433 30.2111 43.3433C31.2305 43.3433 32.2498 43.6315 33.1415 44.2068L42.1963 51.2136Z" fill="#FFE14D"/>
<path d="M30.2112 30.0059V19.3962H42.1179C41.436 25.3684 36.3649 30.0059 30.2112 30.0059Z" fill="#FABE2C"/>
<path d="M42.1964 51.2136H30.2112V43.3433C31.2306 43.3433 32.2499 43.6315 33.1416 44.2068L42.1964 51.2136Z" fill="#FABE2C"/>
<path d="M31.9688 30.0047V35.7963C31.9688 36.7665 31.1814 37.5539 30.2112 37.5539C29.2398 37.5539 28.4536 36.7665 28.4536 35.7963V30.0047C28.4536 29.0345 29.2398 28.2471 30.2112 28.2471C31.1814 28.2471 31.9688 29.0345 31.9688 30.0047Z" fill="#FFE14D"/>
<path d="M31.9688 30.0047V35.7963C31.9688 36.7665 31.1814 37.5539 30.2112 37.5539V28.2471C31.1814 28.2471 31.9688 29.0345 31.9688 30.0047Z" fill="#FABE2C"/>
<path d="M42.1963 7.02905H18.2258C17.2545 7.02905 16.4683 7.81644 16.4683 8.78663V18.0208C16.4683 18.5433 16.4976 19.073 16.5573 19.5955C17.074 24.1183 19.7479 27.9157 23.4844 30.0095C25.4658 31.1227 27.7458 31.7554 30.1619 31.7636H30.2591C37.2164 31.74 43.0728 26.5282 43.8637 19.5967C43.9234 19.0753 43.9539 18.5445 43.9539 18.0208V8.78651C43.9539 7.81644 43.1665 7.02905 42.1963 7.02905ZM40.4387 18.0207C40.4387 18.4121 40.4153 18.8069 40.3708 19.197C39.7838 24.3407 35.4414 28.2237 30.2613 28.2483H30.1594C24.9782 28.2225 20.6371 24.3395 20.05 19.197C20.0055 18.8068 19.9832 18.4108 19.9832 18.0207V9.37233H40.4386V18.0207H40.4387Z" fill="#6AA9FF"/>
<path d="M39.9279 32.2732C37.377 29.7222 33.9591 28.2593 30.2615 28.2485C30.2451 28.2473 30.2275 28.2473 30.2111 28.2473C30.1935 28.2473 30.1771 28.2473 30.1595 28.2485C27.7364 28.2567 25.4598 28.8952 23.4844 30.0096C19.3003 32.3682 16.4683 36.8546 16.4683 41.9901V51.2125C16.4683 52.1839 17.2545 52.9701 18.2258 52.9701H42.1963C43.1665 52.9701 43.9539 52.1839 43.9539 51.2125V41.9901C43.9539 38.3203 42.5244 34.8685 39.9279 32.2732ZM40.4387 50.6266H19.9834V41.9901C19.9834 36.3671 24.5448 31.7894 30.1619 31.7636C30.1783 31.7625 30.1947 31.7625 30.2111 31.7625C30.2275 31.7625 30.2427 31.7625 30.2591 31.7636C32.9727 31.7754 35.5224 32.838 37.4427 34.7585C39.3749 36.6907 40.4387 39.259 40.4387 41.9902V50.6266Z" fill="#6AA9FF"/>
<path d="M36.9472 30.0047C38.0264 30.614 39.0281 31.3732 39.928 32.2731C42.5244 34.8685 43.9539 38.3202 43.9539 41.9899V51.2124C43.9539 52.1837 43.1665 52.97 42.1963 52.97H30.2112V50.6266H40.4388V41.9901C40.4388 39.2589 39.375 36.6905 37.4428 34.7583C35.5225 32.838 32.9728 31.7752 30.2592 31.7635H30.2112V28.2473C30.2276 28.2473 30.2452 28.2473 30.2616 28.2484C35.4416 28.2238 39.7839 24.3408 40.371 19.1971C40.4155 18.8069 40.439 18.4121 40.439 18.0208V9.37233H30.2112V7.02905H42.1964C43.1666 7.02905 43.954 7.81644 43.954 8.78663V18.0208C43.954 18.5445 43.9235 19.0753 43.8638 19.5967C43.3481 24.1146 40.6779 27.9086 36.9472 30.0047Z" fill="#4987EA"/>
<path d="M47.5651 1.75758V8.78777C47.5651 9.75797 46.7777 10.5454 45.8075 10.5454H14.6148C13.6446 10.5454 12.8572 9.75797 12.8572 8.78777V1.75758C12.8572 0.786211 13.6446 0 14.6148 0H45.8075C46.7777 0 47.5651 0.786211 47.5651 1.75758Z" fill="#334973"/>
<path d="M47.5651 1.75758V8.78777C47.5651 9.75797 46.7777 10.5454 45.8075 10.5454H30.2112V0H45.8075C46.7777 0 47.5651 0.786211 47.5651 1.75758Z" fill="#1F3259"/>
<path d="M47.5651 51.2124V58.2426C47.5651 59.214 46.7777 60.0002 45.8075 60.0002H14.6148C13.6446 60.0002 12.8572 59.214 12.8572 58.2426V51.2124C12.8572 50.2422 13.6446 49.4548 14.6148 49.4548H45.8075C46.7777 49.4548 47.5651 50.2422 47.5651 51.2124Z" fill="#334973"/>
<path d="M47.5651 51.2123V58.2425C47.5651 59.2139 46.7777 60.0001 45.8075 60.0001H30.2112V49.4548H45.8075C46.7777 49.4547 47.5651 50.2421 47.5651 51.2123Z" fill="#1F3259"/>
</g>
<defs>
<clipPath id="clip0_696:3334">
<rect width="60" height="60" fill="white"/>
</clipPath>
</defs>
</svg>
