<svg width="60" height="60" viewBox="0 0 60 60" fill="none" xmlns="http://www.w3.org/2000/svg">
<g clip-path="url(#clip0_730:1866)">
<path d="M13.9362 50.0391V58.2422C13.9362 59.2125 13.1487 60 12.1783 60H5.14709C4.17561 60 3.38928 59.2125 3.38928 58.2422V50.0391C3.38928 49.0688 4.17561 48.2812 5.14709 48.2812H12.1783C13.1487 48.2812 13.9362 49.0688 13.9362 50.0391Z" fill="#FF8066"/>
<path d="M27.9985 41.3484V58.2421C27.9985 59.2124 27.211 59.9999 26.2407 59.9999H19.2095C18.238 59.9999 17.4517 59.2124 17.4517 58.2421V41.3484C17.4517 40.3781 18.238 39.5906 19.2095 39.5906H26.2407C27.211 39.5906 27.9985 40.3781 27.9985 41.3484Z" fill="#FABE2C"/>
<path d="M42.0609 28.3184V58.2422C42.0609 59.2125 41.2734 60 40.3031 60H33.2719C32.3004 60 31.514 59.2125 31.514 58.2422V28.3184C31.514 27.3469 32.3004 26.5605 33.2719 26.5605H40.3031C41.2734 26.5605 42.0609 27.347 42.0609 28.3184Z" fill="#FFE14D"/>
<path d="M56.1234 15.3564V58.2423C56.1234 59.2126 55.3359 60.0001 54.3656 60.0001H47.3344C46.3629 60.0001 45.5765 59.2126 45.5765 58.2423V15.3564C45.5765 14.385 46.3629 13.5986 47.3344 13.5986H54.3656C55.3359 13.5986 56.1234 14.385 56.1234 15.3564Z" fill="#97DE3D"/>
<path d="M56.3075 2.7455L51.8461 9.31269C51.518 9.79433 50.9743 10.0826 50.3918 10.0826H44.5196L38.2266 22.1014C37.9231 22.6814 37.3243 23.0447 36.6692 23.0447H30.7958L30 24.4955L24.1489 35.1631C23.8395 35.7256 23.2489 36.0748 22.6067 36.0748H16.6172L11.1645 44.0037C10.8375 44.4807 10.295 44.7654 9.71606 44.7654H5.14575C4.17544 44.7654 3.38794 43.9779 3.38794 43.0076C3.38794 42.0373 4.17544 41.2498 5.14575 41.2498H8.79263L14.2442 33.3209C14.5723 32.8439 15.1149 32.5592 15.6926 32.5592H21.5661L28.2141 20.4408C28.5235 19.8783 29.1141 19.5291 29.7551 19.5291H35.6063L41.8981 7.50917C42.2016 6.93027 42.8016 6.56699 43.4555 6.56699H49.4614L53.4 0.76972C53.945 -0.0330148 55.0383 -0.241609 55.8411 0.303313C56.645 0.849407 56.8536 1.94277 56.3075 2.7455Z" fill="#334973"/>
<path d="M13.936 50.0391V58.2422C13.936 59.2125 13.1485 60 12.1782 60H8.6626V48.2812H12.1782C13.1485 48.2812 13.936 49.0688 13.936 50.0391Z" fill="#FF4D4D"/>
<path d="M27.9985 41.3484V58.2421C27.9985 59.2124 27.211 59.9999 26.2407 59.9999H22.7251V39.5906H26.2407C27.211 39.5906 27.9985 40.3781 27.9985 41.3484Z" fill="#FF9100"/>
<path d="M42.0609 28.3184V58.2422C42.0609 59.2125 41.2734 60 40.3031 60H36.7875V26.5605H40.3031C41.2734 26.5605 42.0609 27.347 42.0609 28.3184Z" fill="#FABE2C"/>
<path d="M56.1234 15.3564V58.2423C56.1234 59.2126 55.3359 60.0001 54.3656 60.0001H50.85V13.5986H54.3656C55.3359 13.5986 56.1234 14.385 56.1234 15.3564Z" fill="#59C36A"/>
<path d="M56.3074 2.7455L51.8461 9.31269C51.518 9.79433 50.9742 10.0826 50.3918 10.0826H44.5195L38.2266 22.1014C37.923 22.6814 37.3242 23.0447 36.6691 23.0447H30.7957L30 24.4955V19.5291H35.6062L41.898 7.50917C42.2016 6.93027 42.8016 6.56699 43.4555 6.56699H49.4613L53.4 0.76972C53.9449 -0.0330148 55.0383 -0.241609 55.841 0.303313C56.6449 0.849407 56.8535 1.94277 56.3074 2.7455Z" fill="#1F3259"/>
</g>
<defs>
<clipPath id="clip0_730:1866">
<rect width="60" height="60" fill="white"/>
</clipPath>
</defs>
</svg>
