<svg width="25" height="25" viewBox="0 0 25 25" fill="none" xmlns="http://www.w3.org/2000/svg">
<g clip-path="url(#clip0_613:1641)">
<path d="M16.1977 11.2219L10.7992 8.26807C10.4887 8.09823 10.1218 8.10457 9.81758 8.28485C9.51313 8.46532 9.33154 8.78412 9.33154 9.13797V14.995C9.33154 15.3472 9.51201 15.6654 9.81441 15.8461C9.97232 15.9404 10.1474 15.9878 10.3228 15.9878C10.4835 15.9878 10.6446 15.9481 10.7928 15.8683L16.1916 12.9653C16.512 12.7928 16.7121 12.4597 16.7136 12.0956C16.7149 11.7315 16.5173 11.3968 16.1977 11.2219ZM10.7635 14.2582V9.88073L14.7983 12.0885L10.7635 14.2582Z"/>
<path d="M24.4748 7.42841L24.4737 7.41722C24.453 7.22053 24.247 5.47103 23.3965 4.58118C22.4134 3.53453 21.2989 3.40739 20.7629 3.34642C20.7185 3.34139 20.6779 3.33673 20.6415 3.33188L20.5988 3.32741C17.3683 3.0925 12.4895 3.06043 12.4407 3.06025L12.4364 3.06006L12.4321 3.06025C12.3833 3.06043 7.50447 3.0925 4.24486 3.32741L4.2018 3.33188C4.16712 3.33654 4.1289 3.34083 4.08732 3.34568C3.55748 3.40683 2.45491 3.53416 1.46905 4.61865C0.658991 5.499 0.42483 7.21103 0.400781 7.40343L0.397984 7.42841C0.390713 7.51025 0.218262 9.45868 0.218262 11.4148V13.2433C0.218262 15.1994 0.390713 17.1478 0.397984 17.2298L0.399289 17.2421C0.419983 17.4357 0.625806 19.1531 1.4724 20.0433C2.39674 21.0549 3.5655 21.1888 4.19415 21.2607C4.29352 21.2721 4.37909 21.2818 4.43745 21.2921L4.49394 21.2999C6.35921 21.4774 12.2075 21.5648 12.4554 21.5684L12.4629 21.5685L12.4703 21.5684C12.5192 21.5682 17.3978 21.5361 20.6283 21.3012L20.671 21.2967C20.7118 21.2913 20.7577 21.2865 20.808 21.2812C21.3349 21.2253 22.4315 21.1092 23.4037 20.0394C24.2138 19.1589 24.4481 17.4468 24.472 17.2546L24.4748 17.2297C24.4821 17.1476 24.6547 15.1994 24.6547 13.2433V11.4148C24.6545 9.45868 24.4821 7.51044 24.4748 7.42841ZM23.2225 13.2433C23.2225 15.0538 23.0644 16.9183 23.0495 17.0895C22.9887 17.5609 22.7417 18.6441 22.347 19.0731C21.7385 19.7426 21.1134 19.809 20.657 19.8573C20.6018 19.863 20.5507 19.8686 20.5045 19.8744C17.3799 20.1004 12.6853 20.135 12.469 20.1364C12.2265 20.1328 6.4638 20.0446 4.65539 19.8766C4.56273 19.8615 4.46262 19.85 4.35709 19.8381C3.82184 19.7767 3.08916 19.6928 2.52575 19.0731L2.51252 19.0589C2.12473 18.6549 1.88479 17.642 1.82383 17.095C1.81246 16.9657 1.65026 15.0791 1.65026 13.2433V11.4148C1.65026 9.60634 1.80798 7.74386 1.82327 7.56917C1.89579 7.01378 2.14748 5.99622 2.52575 5.58494C3.15292 4.89513 3.8142 4.8187 4.25157 4.76817C4.29333 4.76333 4.3323 4.75885 4.36828 4.75419C7.5384 4.52711 12.2667 4.49337 12.4364 4.49206C12.606 4.49318 17.3327 4.52711 20.4747 4.75419C20.5133 4.75904 20.5554 4.76388 20.6007 4.7691C21.0506 4.82037 21.7305 4.89793 22.3545 5.5635L22.3603 5.56966C22.7481 5.97366 22.988 7.00427 23.049 7.56227C23.0598 7.68438 23.2225 9.57502 23.2225 11.4148V13.2433Z"/>
</g>
<defs>
<clipPath id="clip0_613:1641">
<rect width="24.4364" height="24.4364" fill="white" transform="translate(0.218262 0.101562)"/>
</clipPath>
</defs>
</svg>
